<?xml version="1.0" encoding="UTF-8" standalone="no"?>
<!-- Created with Inkscape (http://www.inkscape.org/) -->

<svg
   width="512"
   height="512"
   viewBox="0 0 135.46667 135.46667"
   version="1.1"
   id="svg1"
   xmlns="http://www.w3.org/2000/svg"
   xmlns:svg="http://www.w3.org/2000/svg">
  <defs
     id="defs1" />
  <g
     id="layer4">
    <path
       id="text28"
       style="font-size:30.2362px;line-height:0px;font-family:Serif;-inkscape-font-specification:Serif;text-align:center;text-anchor:middle;white-space:pre;fill:none;stroke:#052817;stroke-width:3.175;stroke-linecap:round;stroke-linejoin:round;stroke-dasharray:none;stroke-opacity:1"
       d="M 32.277459,105.46667 H 23.581711 V 31.242282 h 8.695748 v 9.109817 q 6.884132,0.98344 12.060172,3.260917 5.2278,2.225689 8.695731,5.590095 3.51972,3.364444 5.27958,7.815823 1.811606,4.451412 1.811606,9.782703 0,5.383111 -1.811606,9.83449 -1.75986,4.399632 -5.27958,7.815824 -3.467931,3.364445 -8.695731,5.590137 -5.17604,2.225689 -12.060172,3.209129 z m 0,-20.031279 q 9.265108,-1.759857 13.975304,-6.521788 4.761967,-4.813717 4.761967,-12.111966 0,-7.246424 -4.761967,-12.008393 -4.710196,-4.761969 -13.975304,-6.625321 z M 66.646376,60.228102 89.265644,29.999999 111.88494,60.228102 v 2.380966 L 94.234637,86.211814 108.67581,105.46667 H 98.686049 L 89.265644,92.837138 79.793491,105.46667 H 69.855508 L 84.296652,86.211814 66.646376,62.609068 Z M 89.265644,79.586486 102.82688,61.418566 89.265644,43.250678 75.652664,61.418566 Z M 133.3113,67.733336 A 65.577956,65.577956 0 0 1 67.733348,133.31128 65.577956,65.577956 0 0 1 2.1553737,67.733336 65.577956,65.577956 0 0 1 67.733348,2.1553887 65.577956,65.577956 0 0 1 133.3113,67.733336 Z" />
  </g>
</svg>
